AdventPro-blk_wd_it.ufo
<glyph name="plus" format="2">
  <advance width="573" height="962"/>
  <unicode hex="002B"/>
  <outline>
    <contour>
      <point x="464" y="531" type="line"/>
      <point x="443" y="430" type="line"/>
      <point x="587" y="430" type="line"/>
      <point x="560" y="304" type="line"/>
      <point x="416" y="304" type="line"/>
      <point x="396" y="211" type="line"/>
      <point x="262" y="211" type="line"/>
      <point x="282" y="304" type="line"/>
      <point x="139" y="304" type="line"/>
      <point x="166" y="430" type="line"/>
      <point x="309" y="430" type="line"/>
      <point x="330" y="531" type="line"/>
    </contour>
  </outline>
</glyph>
<glyph name="six" format="2">
  <advance width="692" height="962"/>
  <unicode hex="0036"/>
  <outline>
    <contour>
      <point x="481" y="541" type="line" smooth="yes"/>
      <point x="406" y="541"/>
      <point x="315" y="515"/>
      <point x="301" y="446" type="curve" smooth="yes"/>
      <point x="292" y="406" type="line"/>
      <point x="292" y="404"/>
      <point x="357" y="425"/>
      <point x="451" y="425" type="curve" smooth="yes"/>
      <point x="635" y="425"/>
      <point x="737" y="345"/>
      <point x="707" y="202" type="curve" smooth="yes"/>
      <point x="679" y="72"/>
      <point x="522" y="-10"/>
      <point x="342" y="-10" type="curve" smooth="yes"/>
      <point x="164" y="-10"/>
      <point x="42" y="73"/>
      <point x="69" y="202" type="curve" smooth="yes"/>
      <point x="124" y="461" type="line" smooth="yes"/>
      <point x="155" y="607"/>
      <point x="322" y="701"/>
      <point x="541" y="701" type="curve" smooth="yes"/>
      <point x="594" y="701" type="line"/>
      <point x="560" y="541" type="line"/>
    </contour>
    <contour>
      <point x="400" y="265" type="curve" smooth="yes"/>
      <point x="322" y="265"/>
      <point x="258" y="246"/>
      <point x="250" y="209" type="curve" smooth="yes"/>
      <point x="243" y="172"/>
      <point x="299" y="156"/>
      <point x="377" y="156" type="curve" smooth="yes"/>
      <point x="455" y="156"/>
      <point x="522" y="172"/>
      <point x="529" y="209" type="curve" smooth="yes"/>
      <point x="537" y="246"/>
      <point x="478" y="265"/>
    </contour>
  </outline>
</glyph>
<glyph name="asciicircum" format="2">
  <advance width="267" height="962"/>
  <unicode hex="005E"/>
  <outline>
    <contour>
      <point x="452" y="800" type="line"/>
      <point x="365" y="724" type="line"/>
      <point x="303" y="785" type="line"/>
      <point x="209" y="723" type="line"/>
      <point x="157" y="803" type="line"/>
      <point x="330" y="921" type="line"/>
    </contour>
  </outline>
</glyph>
<glyph name="braceleft" format="2">
  <advance width="438" height="962"/>
  <unicode hex="007B"/>
  <outline>
    <contour>
      <point x="450" y="518" type="line" smooth="yes"/>
      <point x="432.592" y="432.794"/>
      <point x="392.861" y="392.184"/>
      <point x="316" y="353" type="curve"/>
      <point x="384.31" y="310.306"/>
      <point x="397.815" y="265.909"/>
      <point x="380" y="190" type="curve" smooth="yes"/>
      <point x="357" y="92" type="line" smooth="yes"/>
      <point x="339.478" y="17.3409"/>
      <point x="375" y="-4"/>
      <point x="393" y="-18" type="curve"/>
      <point x="319" y="-122" type="line"/>
      <point x="310" y="-122"/>
      <point x="143" y="-85"/>
      <point x="177" y="76" type="curve" smooth="yes"/>
      <point x="201" y="190" type="line" smooth="yes"/>
      <point x="217.339" y="266.247"/>
      <point x="195.824" y="307.243"/>
      <point x="128" y="346" type="curve" smooth="yes"/>
      <point x="114" y="353" type="line"/>
      <point x="131" y="361" type="line" smooth="yes"/>
      <point x="206.407" y="396.569"/>
      <point x="253.593" y="433.865"/>
      <point x="271" y="518" type="curve" smooth="yes"/>
      <point x="295" y="631" type="line" smooth="yes"/>
      <point x="329" y="792"/>
      <point x="493" y="824"/>
      <point x="499" y="824" type="curve"/>
      <point x="552" y="721" type="line"/>
      <point x="512" y="707"/>
      <point x="484.35" y="686.136"/>
      <point x="469" y="611" type="curve" smooth="yes"/>
    </contour>
  </outline>
</glyph>
<glyph name="braceright" format="2">
  <advance width="447" height="962"/>
  <unicode hex="007D"/>
  <outline>
    <contour>
      <point x="292" y="824" type="line"/>
      <point x="298" y="824"/>
      <point x="452" y="792"/>
      <point x="418" y="631" type="curve" smooth="yes"/>
      <point x="394" y="518" type="line" smooth="yes"/>
      <point x="382" y="461"/>
      <point x="378" y="411"/>
      <point x="463" y="361" type="curve" smooth="yes"/>
      <point x="477" y="353" type="line"/>
      <point x="461" y="346" type="line" smooth="yes"/>
      <point x="356" y="298"/>
      <point x="336" y="246"/>
      <point x="324" y="190" type="curve" smooth="yes"/>
      <point x="300" y="76" type="line" smooth="yes"/>
      <point x="266" y="-85"/>
      <point x="100" y="-118"/>
      <point x="92" y="-118" type="curve"/>
      <point x="34" y="-34" type="line"/>
      <point x="77" y="-21"/>
      <point x="117" y="1"/>
      <point x="133" y="76" type="curve" smooth="yes"/>
      <point x="157" y="190" type="line" smooth="yes"/>
      <point x="170" y="247"/>
      <point x="187" y="303"/>
      <point x="293" y="353" type="curve"/>
      <point x="209" y="405"/>
      <point x="215" y="461"/>
      <point x="227" y="518" type="curve" smooth="yes"/>
      <point x="251" y="631" type="line" smooth="yes"/>
      <point x="267" y="706"/>
      <point x="236" y="728"/>
      <point x="199" y="741" type="curve"/>
    </contour>
  </outline>
</glyph>
<glyph name="ordfeminine" format="2">
  <advance width="520" height="962"/>
  <unicode hex="00AA"/>
  <outline>
    <contour>
      <point x="577" y="392" type="curve"/>
      <point x="510" y="386"/>
      <point x="415" y="379"/>
      <point x="364" y="379" type="curve" smooth="yes"/>
      <point x="230" y="379"/>
      <point x="124.259" y="407.384"/>
      <point x="150" y="520" type="curve" smooth="yes"/>
      <point x="164.268" y="582.421"/>
      <point x="234" y="633"/>
      <point x="336" y="633" type="curve" smooth="yes"/>
      <point x="372" y="633"/>
      <point x="426" y="625"/>
      <point x="462" y="611" type="curve"/>
      <point x="468" y="638"/>
      <point x="456" y="646"/>
      <point x="382" y="646" type="curve" smooth="yes"/>
      <point x="366" y="646"/>
      <point x="345" y="646"/>
      <point x="318" y="643" type="curve"/>
      <point x="346" y="710" type="line"/>
      <point x="421" y="716"/>
      <point x="528.436" y="715.037"/>
      <point x="574" y="689" type="curve" smooth="yes"/>
      <point x="619.456" y="663.025"/>
      <point x="625" y="618"/>
      <point x="612" y="556" type="curve"/>
      <point x="613" y="558"/>
      <point x="576" y="388"/>
    </contour>
    <contour>
      <point x="446" y="527" type="line"/>
      <point x="424" y="538"/>
      <point x="400" y="549"/>
      <point x="369" y="549" type="curve" smooth="yes"/>
      <point x="330" y="549"/>
      <point x="308.01" y="538.209"/>
      <point x="303" y="512" type="curve" smooth="yes"/>
      <point x="295.005" y="470.178"/>
      <point x="341" y="467"/>
      <point x="376" y="467" type="curve" smooth="yes"/>
      <point x="399" y="467"/>
      <point x="414" y="469"/>
      <point x="430" y="469" type="curve"/>
    </contour>
  </outline>
</glyph>
<glyph name="AE" format="2">
  <advance width="1122" height="962"/>
  <unicode hex="00C6"/>
  <outline>
    <contour>
      <point x="589" y="0" type="line"/>
      <point x="644.888" y="262.98" type="line"/>
      <point x="431.144" y="263" type="line"/>
      <point x="219" y="0" type="line"/>
      <point x="22" y="0" type="line"/>
      <point x="579" y="700" type="line"/>
      <point x="1240" y="700" type="line"/>
      <point x="1206" y="540" type="line"/>
      <point x="882" y="540" type="line"/>
      <point x="855.35" y="420" type="line"/>
      <point x="1098.35" y="420" type="line"/>
      <point x="1014.35" y="262" type="line"/>
      <point x="822.35" y="262" type="line"/>
      <point x="805" y="179" type="line"/>
      <point x="1126" y="179" type="line"/>
      <point x="1088" y="0" type="line"/>
    </contour>
    <contour>
      <point x="553.494" y="420" type="line"/>
      <point x="676.888" y="419.98" type="line"/>
      <point x="702" y="539" type="line"/>
      <point x="650" y="539" type="line"/>
    </contour>
  </outline>
  <guideline angle="0" x="0" y="300"/>
</glyph>
<glyph name="Thorn" format="2">
  <advance width="729" height="962"/>
  <unicode hex="00DE"/>
  <outline>
    <contour>
      <point x="529" y="615" type="line" smooth="yes"/>
      <point x="686" y="615"/>
      <point x="821" y="568"/>
      <point x="772" y="353" type="curve" smooth="yes"/>
      <point x="721" y="128"/>
      <point x="578" y="87"/>
      <point x="416" y="87" type="curve" smooth="yes"/>
      <point x="239" y="87" type="line"/>
      <point x="221" y="0" type="line"/>
      <point x="42" y="0" type="line"/>
      <point x="191" y="700" type="line"/>
      <point x="370" y="700" type="line"/>
      <point x="352" y="615" type="line"/>
    </contour>
    <contour>
      <point x="274" y="247" type="line"/>
      <point x="463" y="247" type="line" smooth="yes"/>
      <point x="520" y="247"/>
      <point x="570" y="273"/>
      <point x="587" y="351" type="curve" smooth="yes"/>
      <point x="602" y="423"/>
      <point x="562" y="452"/>
      <point x="506" y="452" type="curve" smooth="yes"/>
      <point x="317" y="452" type="line"/>
    </contour>
  </outline>
</glyph>
<glyph name="ij" format="2">
  <advance width="656" height="962"/>
  <unicode hex="0133"/>
  <outline>
    <contour>
      <point x="287" y="741" type="curve" smooth="yes"/>
      <point x="337" y="741"/>
      <point x="371" y="704"/>
      <point x="360" y="653" type="curve" smooth="yes"/>
      <point x="349" y="601"/>
      <point x="298" y="561"/>
      <point x="248" y="561" type="curve" smooth="yes"/>
      <point x="196" y="561"/>
      <point x="165" y="601"/>
      <point x="176" y="653" type="curve" smooth="yes"/>
      <point x="187" y="704"/>
      <point x="235" y="741"/>
    </contour>
    <contour>
      <point x="760" y="653" type="curve" smooth="yes"/>
      <point x="749" y="601"/>
      <point x="698" y="561"/>
      <point x="648" y="561" type="curve" smooth="yes"/>
      <point x="596" y="561"/>
      <point x="565" y="601"/>
      <point x="576" y="653" type="curve" smooth="yes"/>
      <point x="587" y="704"/>
      <point x="635" y="741"/>
      <point x="687" y="741" type="curve" smooth="yes"/>
      <point x="737" y="741"/>
      <point x="771" y="704"/>
    </contour>
    <contour>
      <point x="546" y="503" type="line"/>
      <point x="725" y="503" type="line"/>
      <point x="605" y="-59" type="line" smooth="yes"/>
      <point x="585" y="-155"/>
      <point x="468" y="-214"/>
      <point x="318" y="-214" type="curve"/>
      <point x="283" y="-62" type="line"/>
      <point x="325" y="-62"/>
      <point x="428" y="-51"/>
      <point x="437" y="-9" type="curve" smooth="yes"/>
      <point x="442" y="14" type="line"/>
      <point x="376" y="-6"/>
      <point x="316" y="-10"/>
      <point x="244" y="-10" type="curve" smooth="yes"/>
      <point x="141" y="-10"/>
      <point x="43" y="30"/>
      <point x="71" y="159" type="curve" smooth="yes"/>
      <point x="144" y="503" type="line"/>
      <point x="324" y="503" type="line"/>
      <point x="260" y="200" type="line" smooth="yes"/>
      <point x="253" y="168"/>
      <point x="292" y="160"/>
      <point x="357" y="160" type="curve" smooth="yes"/>
      <point x="395" y="160"/>
      <point x="475" y="171"/>
      <point x="482" y="204" type="curve" smooth="yes"/>
    </contour>
  </outline>
</glyph>
<glyph name="Tbar" format="2">
  <advance width="635" height="962"/>
  <unicode hex="0166"/>
  <outline>
    <component base="T"/>
    <contour>
      <point x="101" y="414" type="line"/>
      <point x="707" y="414" type="line"/>
      <point x="682" y="296" type="line"/>
      <point x="76" y="296" type="line"/>
    </contour>
  </outline>
</glyph>
<glyph name="Pi" format="2">
  <advance width="729" height="962"/>
  <unicode hex="03A0"/>
  <outline>
    <contour>
      <point x="508" y="0" type="line"/>
      <point x="623" y="540" type="line"/>
      <point x="336" y="540" type="line"/>
      <point x="221" y="0" type="line"/>
      <point x="41" y="0" type="line"/>
      <point x="190" y="700" type="line"/>
      <point x="838" y="700" type="line"/>
      <point x="689" y="0" type="line"/>
    </contour>
  </outline>
</glyph>
<glyph name="uni040A" format="2">
  <advance width="1211" height="962"/>
  <unicode hex="040A"/>
  <outline>
    <contour>
      <point x="1075" y="436" type="line" smooth="yes"/>
      <point x="1184" y="436"/>
      <point x="1264" y="392"/>
      <point x="1243" y="290" type="curve" smooth="yes"/>
      <point x="1214" y="157" type="line" smooth="yes"/>
      <point x="1187" y="28"/>
      <point x="1081" y="-11"/>
      <point x="910" y="-11" type="curve" smooth="yes"/>
      <point x="776" y="-11"/>
      <point x="500" y="0"/>
      <point x="495" y="0" type="curve"/>
      <point x="555" y="280" type="line"/>
      <point x="283" y="280" type="line"/>
      <point x="223" y="0" type="line"/>
      <point x="42" y="0" type="line"/>
      <point x="191" y="701" type="line"/>
      <point x="372" y="701" type="line"/>
      <point x="316" y="436" type="line"/>
      <point x="588" y="436" type="line"/>
      <point x="644" y="701" type="line"/>
      <point x="824" y="701" type="line"/>
      <point x="768" y="436" type="line"/>
    </contour>
    <contour>
      <point x="1043" y="193" type="curve" smooth="yes"/>
      <point x="1053" y="240" type="line" smooth="yes"/>
      <point x="1060" y="271"/>
      <point x="1040" y="279"/>
      <point x="1011" y="279" type="curve" smooth="yes"/>
      <point x="734" y="279" type="line"/>
      <point x="708" y="155" type="line"/>
      <point x="811" y="151"/>
      <point x="963" y="150"/>
      <point x="974" y="151" type="curve" smooth="yes"/>
      <point x="1017" y="155"/>
      <point x="1037" y="165"/>
    </contour>
  </outline>
  <guideline angle="0" x="0" y="980"/>
  <guideline angle="0" x="0" y="991"/>
  <guideline angle="0" x="0" y="1057"/>
</glyph>
<glyph name="uni0411" format="2">
  <advance width="649" height="962"/>
  <unicode hex="0411"/>
  <outline>
    <component base="uni042C"/>
    <contour>
      <point x="178" y="539" type="line"/>
      <point x="212" y="700" type="line"/>
      <point x="713" y="700" type="line"/>
      <point x="679" y="539" type="line"/>
    </contour>
  </outline>
</glyph>
<glyph name="uni042E" format="2">
  <advance width="1004" height="962"/>
  <unicode hex="042E"/>
  <outline>
    <component base="O" xOffset="300.5"/>
    <component base="I" xOffset="-109.5"/>
    <contour>
      <point x="518.056" y="433" type="line"/>
      <point x="484.04" y="273" type="line"/>
      <point x="157.04" y="273" type="line"/>
      <point x="191.056" y="433" type="line"/>
    </contour>
  </outline>
</glyph>
<glyph name="uni0449" format="2">
  <advance width="922" height="962"/>
  <unicode hex="0449"/>
  <outline>
    <component base="uni0448"/>
    <contour>
      <point x="733" y="149" type="line"/>
      <point x="937" y="149" type="line"/>
      <point x="878" y="-125" type="line"/>
      <point x="708" y="-125" type="line"/>
      <point x="723" y="0" type="line"/>
      <point x="701" y="0" type="line"/>
    </contour>
  </outline>
</glyph>
<glyph name="uni0454" format="2">
  <advance width="545" height="962"/>
  <unicode hex="0454"/>
  <outline>
    <contour>
      <point x="454" y="176" type="line"/>
      <point x="250.463" y="176" type="line"/>
      <point x="248.7" y="167.65" type="line" smooth="yes"/>
      <point x="243.15" y="141.4"/>
      <point x="295" y="141"/>
      <point x="369" y="141" type="curve" smooth="yes"/>
      <point x="420.996" y="141"/>
      <point x="518.983" y="160.996"/>
      <point x="516" y="161" type="curve"/>
      <point x="517" y="5" type="line"/>
      <point x="454" y="-6"/>
      <point x="384" y="-13"/>
      <point x="317" y="-12" type="curve" smooth="yes"/>
      <point x="145" y="-8"/>
      <point x="42" y="45"/>
      <point x="69" y="174" type="curve" smooth="yes"/>
      <point x="100" y="320" type="line" smooth="yes"/>
      <point x="124" y="433"/>
      <point x="241" y="515"/>
      <point x="427" y="512" type="curve" smooth="yes"/>
      <point x="493" y="511"/>
      <point x="558" y="498"/>
      <point x="615" y="479" type="curve"/>
      <point x="542" y="337" type="line"/>
      <point x="515" y="344"/>
      <point x="459" y="355.2"/>
      <point x="412" y="356" type="curve" smooth="yes"/>
      <point x="342" y="357.2"/>
      <point x="288.1" y="354.1"/>
      <point x="282.9" y="329.65" type="curve" smooth="yes"/>
      <point x="281.074" y="321" type="line"/>
      <point x="524" y="321" type="line"/>
    </contour>
  </outline>
</glyph>
<glyph name="uni04B0" format="2">
  <advance width="736" height="962"/>
  <unicode hex="04B0"/>
  <outline>
    <component base="uni04AE"/>
    <contour>
      <point x="207.852" y="258" type="line"/>
      <point x="626.352" y="258" type="line"/>
      <point x="597.013" y="120" type="line"/>
      <point x="178.513" y="120" type="line"/>
    </contour>
  </outline>
</glyph>
<glyph name="quotedblright" format="2">
  <advance width="355" height="962"/>
  <unicode hex="201D"/>
  <outline>
    <contour>
      <point x="163" y="539" type="line"/>
      <point x="176" y="555"/>
      <point x="189" y="573"/>
      <point x="195" y="583" type="curve"/>
      <point x="162" y="592"/>
      <point x="143" y="621"/>
      <point x="151" y="657" type="curve" smooth="yes"/>
      <point x="160" y="700"/>
      <point x="202" y="735"/>
      <point x="246" y="735" type="curve" smooth="yes"/>
      <point x="287" y="735"/>
      <point x="314" y="700"/>
      <point x="305" y="657" type="curve" smooth="yes"/>
      <point x="283" y="555"/>
      <point x="186" y="517"/>
      <point x="188" y="517" type="curve"/>
    </contour>
    <contour>
      <point x="343" y="539" type="line"/>
      <point x="356" y="555"/>
      <point x="369" y="573"/>
      <point x="375" y="583" type="curve"/>
      <point x="342" y="592"/>
      <point x="323" y="621"/>
      <point x="331" y="657" type="curve" smooth="yes"/>
      <point x="340" y="700"/>
      <point x="382" y="735"/>
      <point x="426" y="735" type="curve" smooth="yes"/>
      <point x="467" y="735"/>
      <point x="494" y="700"/>
      <point x="485" y="657" type="curve" smooth="yes"/>
      <point x="463" y="555"/>
      <point x="366" y="517"/>
      <point x="368" y="517" type="curve"/>
    </contour>
  </outline>
</glyph>
<glyph name="guilsinglleft" format="2">
  <advance width="482" height="962"/>
  <unicode hex="2039"/>
  <outline>
    <contour>
      <point x="104.965" y="268" type="line"/>
      <point x="457.926" y="475" type="line"/>
      <point x="528.622" y="381" type="line"/>
      <point x="318.965" y="258" type="line"/>
      <point x="463.671" y="139" type="line"/>
      <point x="379.005" y="51" type="line"/>
    </contour>
  </outline>
</glyph>
<glyph name="Y_upper_alt" format="2">
  <advance width="736" height="962"/>
  <unicode hex="9997"/>
  <outline>
    <contour>
      <point x="522" y="316" type="line"/>
      <point x="455" y="0" type="line"/>
      <point x="276" y="0" type="line"/>
      <point x="343" y="316" type="line"/>
      <point x="160" y="700" type="line"/>
      <point x="359" y="700" type="line"/>
      <point x="461" y="457" type="line"/>
      <point x="670" y="700" type="line"/>
      <point x="870" y="700" type="line"/>
    </contour>
  </outline>
</glyph>
<glyph name="commaturnedbelowcomb" format="2">
  <advance width="267" height="962"/>
  <outline>
    <contour>
      <point x="48" y="-213" type="line"/>
      <point x="63" y="-200"/>
      <point x="72" y="-190"/>
      <point x="78" y="-180" type="curve"/>
      <point x="45" y="-171"/>
      <point x="26" y="-142"/>
      <point x="33" y="-106" type="curve"/>
      <point x="43" y="-63"/>
      <point x="85" y="-28"/>
      <point x="129" y="-28" type="curve" smooth="yes"/>
      <point x="170" y="-28"/>
      <point x="197" y="-63"/>
      <point x="187" y="-106" type="curve"/>
      <point x="166" y="-208"/>
      <point x="71" y="-235"/>
      <point x="73" y="-235" type="curve"/>
    </contour>
  </outline>
</glyph>
<glyph name="gamma_gamma" format="2">
  <advance width="1197" height="962"/>
  <outline>
    <component base="gamma" xOffset="452.5"/>
    <contour>
      <point x="773" y="501" type="line"/>
      <point x="540" y="-11" type="line" smooth="yes"/>
      <point x="485" y="-130"/>
      <point x="389" y="-223"/>
      <point x="127" y="-203" type="curve"/>
      <point x="115" y="-31" type="line"/>
      <point x="186" y="-31"/>
      <point x="320" y="-42"/>
      <point x="336" y="-7" type="curve" smooth="yes"/>
      <point x="347" y="19" type="line"/>
      <point x="234" y="27"/>
      <point x="159" y="70"/>
      <point x="150" y="198" type="curve" smooth="yes"/>
      <point x="129" y="501" type="line"/>
      <point x="324" y="501" type="line"/>
      <point x="334" y="237" type="line" smooth="yes"/>
      <point x="337" y="167"/>
      <point x="427" y="182"/>
      <point x="427" y="182" type="curve"/>
      <point x="578" y="501" type="line"/>
    </contour>
  </outline>
</glyph>
<glyph name="sigma_tau" format="2">
  <advance width="1217" height="962"/>
  <outline>
    <contour>
      <point x="1045" y="327" type="line"/>
      <point x="1111" y="329"/>
      <point x="1183" y="332"/>
      <point x="1258" y="339" type="curve"/>
      <point x="1293" y="502" type="line"/>
      <point x="1073" y="475"/>
      <point x="865" y="483"/>
      <point x="605" y="502" type="curve" smooth="yes"/>
      <point x="541" y="507"/>
      <point x="495" y="512"/>
      <point x="430" y="512" type="curve" smooth="yes"/>
      <point x="277" y="512"/>
      <point x="130" y="471"/>
      <point x="98" y="321" type="curve" smooth="yes"/>
      <point x="69" y="185" type="line" smooth="yes"/>
      <point x="43" y="63"/>
      <point x="115" y="-10"/>
      <point x="322" y="-10" type="curve" smooth="yes"/>
      <point x="513" y="-10"/>
      <point x="625" y="59"/>
      <point x="651" y="185" type="curve"/>
      <point x="665" y="247" type="line"/>
      <point x="673" y="289"/>
      <point x="666" y="323"/>
      <point x="643" y="345" type="curve"/>
      <point x="700" y="339"/>
      <point x="775" y="332"/>
      <point x="865" y="329" type="curve"/>
      <point x="831" y="169" type="line" smooth="yes"/>
      <point x="814" y="91"/>
      <point x="834" y="-12"/>
      <point x="1017" y="-13" type="curve"/>
      <point x="1114" y="153" type="line"/>
      <point x="1054" y="153"/>
      <point x="1009" y="159"/>
      <point x="1022" y="220" type="curve" smooth="yes"/>
    </contour>
    <contour>
      <point x="470" y="346" type="curve"/>
      <point x="502" y="342"/>
      <point x="498" y="312"/>
      <point x="497" y="305" type="curve" smooth="yes"/>
      <point x="475" y="203" type="line" smooth="yes"/>
      <point x="469" y="174"/>
      <point x="436" y="161"/>
      <point x="355" y="161" type="curve" smooth="yes"/>
      <point x="274" y="161"/>
      <point x="245" y="174"/>
      <point x="251" y="203" type="curve" smooth="yes"/>
      <point x="272" y="302" type="line" smooth="yes"/>
      <point x="279" y="334"/>
      <point x="325" y="350"/>
      <point x="390" y="350" type="curve" smooth="yes"/>
      <point x="406" y="350"/>
      <point x="454" y="348"/>
    </contour>
  </outline>
</glyph>
